<svg xmlns="http://www.w3.org/2000/svg" xmlns:xlink="http://www.w3.org/1999/xlink" viewBox="0 0 378.5498 250">
	<defs>
		<linearGradient id="mirage">
			<stop offset="0" style="stop-color: #3a6073; stop-opacity: 1;"/>
			<stop offset="1" style="stop-color: #16222a; stop-opacity: 1;"/>
		</linearGradient>
		<linearGradient id="reef">
			<stop offset="0" style="stop-color: #00d2ff; stop-opacity: 1;"/>
			<stop offset="1" style="stop-color: #3a7bd5; stop-opacity: 1;"/>
		</linearGradient>
		<linearGradient id="upperCircle" xlink:href="#mirage" x1="74.993774" y1="872.2774" x2="160.40004" y2="957.7149" gradientUnits="userSpaceOnUse" gradientTransform="matrix(1.5046073,0,0,1.5046073,-54.268658,-837.10041)"/>
		<linearGradient id="lowerCircle" xlink:href="#mirage" x1="192.46252" y1="989.7774" x2="107.05629" y2="904.3399" gradientUnits="userSpaceOnUse" gradientTransform="matrix(1.5046073,0,0,1.5046073,-54.268658,-837.10041)"/>
		<linearGradient id="prompt" xlink:href="#reef" x1="196.46254" y1="931.0274" x2="302.23486" y2="931.0274" gradientUnits="userSpaceOnUse" gradientTransform="matrix(1.5046073,0,0,1.5046073,-54.268658,-837.10041)"/>
	</defs>
	<g transform="translate(-21.939757,-438.70672)">
		<path fill="url(#upperCircle)" d="M 146.96323,438.70672 C 112.44258,438.70672 81.189978,452.7122 58.567538,475.33457 35.945109,497.95695 21.939757,529.2096 21.939757,563.73025 21.939757,577.20643 24.15353,590.12483 28.099243,602.28582 L 106.80902,523.57604 C 117.08159,513.30349 131.28782,506.93133 146.96323,506.93133 178.31404,506.93133 203.71514,532.3795 203.71514,563.73025 203.71514,579.40556 197.33954,593.61537 187.07042,603.88447 L 265.8272,525.12775 C 249.54367,475.00056 202.51478,438.70672 146.96323,438.70672 z"/>
		<path fill="url(#lowerCircle)" d="M 106.80902,523.57604 28.099243,602.28582 C 44.36832,652.42866 91.398019,688.70672 146.96323,688.70672 181.4714,688.70672 212.68813,674.72546 235.3119,652.12594 235.4694,651.96856 235.6254,651.81388 235.78207,651.65575 258.14514,629.07807 271.98669,598.02312 271.98669,563.73025 271.98669,550.24055 269.78139,537.30002 265.8272,525.12775 L 187.07042,603.88447 C 176.8013,614.15356 162.63863,620.48194 146.96323,620.48224 115.61242,620.48224 90.211312,595.08101 90.211312,563.73025 90.211312,548.05481 96.536444,533.84861 106.80902,523.57604 z"/>
		<path fill="url(#prompt)" d="M 366.35378,438.70672 C 363.99812,438.70672 361.71029,438.95754 359.48902,439.41207 357.26774,439.86662 355.1356,440.52353 353.09443,441.38687 351.05326,442.25021 349.07941,443.31081 347.26408,444.53707 345.44876,445.76408 343.77678,447.17811 342.23304,448.72183 L 330.43129,460.52353 251.34536,539.6096 C 249.80164,541.15302 248.38707,542.82524 247.16067,544.64055 245.93427,546.45586 244.87374,548.42976 244.0104,550.4709 243.14705,552.51206 242.49015,554.64423 242.0356,556.86549 241.58106,559.08674 241.33032,561.37464 241.33032,563.73025 241.33032,566.08587 241.58106,568.37378 242.0356,570.59503 242.49015,572.81628 243.14705,574.94846 244.0104,576.98961 244.87374,579.03076 245.93427,581.00465 247.16067,582.81996 247.45007,583.24833 247.74211,583.67895 248.05403,584.0894 248.06735,584.10715 248.08771,584.11874 248.10105,584.1365 248.13539,584.18149 248.16051,584.23278 248.19509,584.27748 249.15576,585.53683 250.22652,586.73224 251.34536,587.85092 L 251.62748,588.08609 330.43129,666.88989 342.23304,678.69162 C 343.77678,680.23582 345.44876,681.64998 347.26408,682.87639 349.07941,684.1028 351.05326,685.16378 353.09443,686.02659 355.1356,686.89034 357.26774,687.54665 359.48902,688.00148 361.71029,688.45565 363.99812,688.70672 366.35378,688.70672 368.70944,688.70672 370.99727,688.45593 373.21856,688.00148 375.43984,687.54665 377.61899,686.89006 379.66016,686.02659 381.70133,685.16378 383.62817,684.1028 385.44349,682.87639 387.25882,681.64998 388.9308,680.23582 390.47452,678.69162 392.01825,677.14836 393.4328,675.47593 394.65922,673.66065 395.88562,671.84534 396.94613,669.91824 397.80948,667.87739 398.67282,665.83577 399.32973,663.70374 399.78428,661.48279 400.23883,659.26109 400.48957,656.92655 400.48957,654.57092 400.48957,652.21531 400.23883,649.92741 399.78428,647.70615 399.32973,645.48491 398.67282,643.35272 397.80948,641.31157 396.94613,639.27042 395.88562,637.34332 394.65922,635.52832 393.4328,633.71256 392.01825,631.99385 390.47452,630.45027 390.08859,630.06403 389.70125,629.68622 389.29905,629.32181 L 378.67276,618.64843 323.70757,563.73025 378.67276,508.76515 390.47452,496.9633 C 392.01825,495.41959 393.4328,493.74766 394.65922,491.9322 395.88562,490.11689 396.94613,488.14359 397.80948,486.10186 398.67282,484.0613 399.32973,481.92912 399.78428,479.70726 400.23883,477.48647 400.48957,475.19811 400.48957,472.84264 400.48957,470.48643 400.23883,468.19957 399.78428,465.97772 399.32973,463.75692 398.67282,461.57735 397.80948,459.53621 396.94613,457.49505 395.88562,455.56825 394.65922,453.75279 393.4328,451.93748 392.01825,450.26556 390.47452,448.72183 388.9308,447.17811 387.25882,445.76393 385.44349,444.53707 383.62817,443.31112 381.70133,442.25021 379.66016,441.38687 377.61899,440.52353 375.43984,439.86662 373.21856,439.41207 370.99727,438.95754 368.70944,438.70672 366.35378,438.70672 z"/>
	</g>
</svg>
