<svg xmlns="http://www.w3.org/2000/svg" viewBox="0 0 513.19 158.15628">
    <g>
        <path d="M96.162 121.412c-4.289 0-8.493-.762-12.614-2.287-4.12-1.524-7.818-3.527-11.094-6.007l4.403-7.115c2.597 1.919 5.618 3.472 9.061 4.658 3.443 1.187 6.801 1.835 10.074 1.946 2.032 0 4.093-.254 6.18-.762 2.088-.508 3.978-1.269 5.671-2.284s3.076-2.341 4.149-3.979 1.553-3.642 1.439-6.012c0-1.805-.395-3.329-1.186-4.571-.791-1.242-1.778-2.287-2.963-3.134s-2.511-1.581-3.979-2.201c-1.468-.62-2.878-1.213-4.232-1.778l-3.387-1.354c-1.128-.451-2.312-.846-3.553-1.183-2.26-.906-4.546-1.81-6.86-2.713-2.313-.903-4.429-2.144-6.348-3.726-2.033-1.468-3.727-3.301-5.082-5.501-1.356-2.2-2.033-5.049-2.033-8.549 0-3.5.734-6.633 2.201-9.399 1.468-2.766 3.415-5.08 5.842-6.942 2.427-1.862 5.193-3.273 8.299-4.232 3.106-.959 6.295-1.439 9.567-1.439 3.838 0 7.534.564 11.089 1.692 3.555 1.128 7.028 2.652 10.417 4.571l-4.573 7.281c-5.419-3.045-10.838-4.682-16.257-4.909-1.805 0-3.583.226-5.333.677-1.75.451-3.359 1.157-4.826 2.116-1.468.959-2.653 2.173-3.555 3.64-.903 1.468-1.354 3.218-1.354 5.25 0 2.146.593 3.84 1.778 5.082s2.737 2.314 4.656 3.217c1.919.903 4.063 1.834 6.433 2.793 2.37.959 4.74 1.89 7.11 2.793 2.26.903 4.546 1.834 6.86 2.793 2.313.959 4.429 2.23 6.348 3.811 2.032 1.581 3.726 3.529 5.08 5.842 1.354 2.313 2.031 5.163 2.031 8.549 0 3.951-.874 7.395-2.622 10.33-1.748 2.935-4.034 5.362-6.857 7.281-2.823 1.919-5.984 3.358-9.482 4.317-3.498.959-6.998 1.439-10.498 1.439z" fill="#f69139"/>
        <path d="M139.074 53.177h-8.469v-7.958h8.469v-20.659l12.36-4.403v25.062h13.885v7.958h-13.885v48.258c0 4.964 1.242 8.237 3.726 9.818 2.484 1.581 5.87 2.484 10.159 2.708v6.439c-8.24.789-14.675-.51-19.303-3.896s-6.942-8.297-6.942-14.732z" fill="#f69139"/>
        <path d="M205.989 52.665c-4.065 0-7.537.649-10.415 1.948-2.878 1.299-5.446 2.908-7.702 4.826v59.942h-12.36v-61.637c4.74-5.305 10.61-9.143 17.61-11.513 3.724-1.354 7.505-2.341 11.342-2.961 3.838-.62 8.354-.479 13.549.424-.792 1.578-1.64 3.242-2.542 4.992-.903 1.75-1.693 3.416-2.372 4.997l-3.723-.68c-1.242-.226-2.314-.338-3.217-.338z" fill="#f69139"/>
        <path d="M264.383 106.344v-25.398h-7.283c-2.933 0-5.924.055-8.973.165-4.74 0-8.691 1.27-11.851 3.811-3.161 2.541-4.741 6.181-4.741 10.921 0 2.146.423 4.207 1.269 6.183.846 1.976 2.031 3.725 3.555 5.247 1.524 1.523 3.302 2.765 5.333 3.726 2.031.961 4.288 1.442 6.772 1.442 3.614.11 6.888-.568 9.823-2.036 2.935-1.468 4.968-2.821 6.098-4.062zm12.019 1.695c-3.614 3.61-8.214 6.657-13.802 9.141-5.588 2.484-12.106 3.669-19.553 3.555-3.386-.114-6.547-.819-9.482-2.116-2.935-1.297-5.503-3.046-7.705-5.247-2.201-2.201-3.923-4.769-5.165-7.705-1.242-2.935-1.806-6.096-1.692-9.482 0-3.614.677-6.86 2.031-9.738 1.354-2.878 3.188-5.305 5.503-7.281s4.996-3.472 8.043-4.488c3.047-1.016 6.377-1.524 9.991-1.524h20.148v-7.281c0-2.143-.451-4.089-1.354-5.839s-2.088-3.246-3.555-4.488c-1.468-1.242-3.189-2.201-5.165-2.878s-3.98-1.015-6.012-1.015c-3.724 0-7.082.451-10.074 1.354s-6.124 2.201-9.397 3.896l-3.049-7.115c4.403-2.37 8.523-4.035 12.36-4.994 3.838-.959 8.297-1.439 13.378-1.439 3.045 0 6.064.508 9.056 1.524 2.992 1.016 5.617 2.455 7.875 4.317s4.093 4.148 5.503 6.857c1.411 2.709 2.116 5.757 2.116 9.144z" fill="#f69139"/>
        <path d="M318.553 112.271c4.062-.227 7.306-1.3 9.733-3.219 2.427-1.919 4.261-4.317 5.503-7.196 1.242-2.878 2.061-5.982 2.457-9.312.396-3.329.594-6.575.594-9.738 0-3.049-.198-6.351-.594-9.906-.396-3.555-1.187-6.885-2.372-9.989-1.185-3.104-2.934-5.7-5.247-7.79-2.313-2.089-5.389-3.246-9.226-3.47-2.598-.114-5.054.027-7.369.421-2.315.395-4.404.931-6.265 1.61-1.862.679-3.386 1.385-4.571 2.119-1.185.734-2.003 1.326-2.455 1.778v48.258c1.016.675 2.258 1.408 3.726 2.199 1.468.791 3.076 1.524 4.826 2.201 1.75.677 3.584 1.213 5.503 1.61 1.919.396 3.838.537 5.756.424zm3.049-68.747c5.078-.114 9.451.902 13.12 3.046 3.669 2.145 6.717 5.08 9.144 8.805 2.427 3.726 4.233 8.016 5.418 12.869 1.185 4.854 1.778 9.99 1.778 15.409 0 4.74-.593 9.312-1.778 13.714-1.185 4.403-3.02 8.354-5.503 11.854-2.484 3.5-5.588 6.322-9.312 8.467-3.724 2.144-8.127 3.274-13.208 3.387-4.175 0-8.07-.593-11.683-1.778-3.614-1.185-7.169-2.851-10.665-4.997v43.856l-12.195-4.403.171-97.364 1.863-1.946c1.242-1.297 3.246-2.764 6.012-4.403 2.766-1.638 6.322-3.134 10.668-4.488 4.346-1.354 9.679-2.088 16.001-2.201z" fill="#f69139"/>
        <path d="M361.516 120.906c-2.484 0-4.572-.847-6.265-2.54-1.693-1.693-2.597-3.725-2.71-6.095 0-2.484.819-4.601 2.457-6.351s3.642-2.625 6.012-2.625c2.484 0 4.572.875 6.265 2.625 1.693 1.75 2.54 3.867 2.54 6.351 0 2.37-.847 4.402-2.54 6.095-1.693 1.693-3.67 2.54-5.93 2.54z" fill="#fea85d"/>
        <path d="M408.878 112.271c4.062-.227 7.306-1.3 9.733-3.219 2.427-1.919 4.261-4.317 5.503-7.196 1.242-2.878 2.061-5.982 2.457-9.312.396-3.329.594-6.575.594-9.738 0-3.049-.198-6.351-.594-9.906-.396-3.555-1.187-6.885-2.372-9.989-1.185-3.104-2.934-5.7-5.247-7.79-2.313-2.089-5.389-3.246-9.226-3.47-2.598-.114-5.054.027-7.369.421-2.315.395-4.404.931-6.265 1.61-1.862.679-3.386 1.385-4.571 2.119-1.185.734-2.003 1.326-2.455 1.778v48.258c1.016.675 2.258 1.408 3.726 2.199 1.468.791 3.076 1.524 4.826 2.201 1.75.677 3.584 1.213 5.503 1.61 1.919.396 3.838.537 5.756.424zm3.049-68.747c5.078-.114 9.451.902 13.12 3.046 3.669 2.145 6.717 5.08 9.144 8.805 2.427 3.726 4.233 8.016 5.418 12.869 1.185 4.854 1.778 9.99 1.778 15.409 0 4.74-.593 9.312-1.778 13.714-1.185 4.403-3.02 8.354-5.503 11.854-2.484 3.5-5.588 6.322-9.312 8.467-3.724 2.144-8.127 3.274-13.208 3.387-4.175 0-8.07-.593-11.683-1.778-3.614-1.185-7.169-2.851-10.665-4.997v43.856l-12.195-4.403.171-97.364 1.863-1.946c1.242-1.297 3.246-2.764 6.012-4.403 2.766-1.638 6.322-3.134 10.668-4.488 4.346-1.354 9.679-2.088 16.001-2.201z" fill="#fea85d"/>
        <path d="M463.578 95.167c0 5.756 1.806 10.075 5.418 12.955 3.612 2.88 8.184 4.263 13.717 4.149 3.273-.114 6.602-.904 9.989-2.372 3.386-1.468 6.096-2.878 8.128-4.232v-60.448h12.36v67.223c0 2.143-.056 4.512-.168 7.108-.112 2.596-.309 5.192-.592 7.79-.283 2.597-.678 5.081-1.186 7.451-.508 2.37-1.214 4.403-2.116 6.098-1.581 2.935-3.783 5.475-6.604 7.619s-5.925 3.894-9.312 5.247c-3.386 1.354-6.858 2.342-10.415 2.963-3.557.622-6.915.988-10.074 1.098l-2.036-7.787c2.374-.338 4.943-.732 7.707-1.183 2.765-.451 5.446-1.101 8.043-1.948 2.597-.847 4.997-2.005 7.198-3.472 2.201-1.468 3.922-3.386 5.162-5.756.679-1.13 1.187-2.542 1.524-4.235.338-1.693.591-3.442.76-5.247.169-1.805.282-3.583.338-5.333.057-1.75.085-3.302.085-4.656 0-.906.028-1.443.085-1.612.057-.169.028-.704-.085-1.607-1.919.903-5.023 2.088-9.312 3.555-4.289 1.468-10.045 2.201-17.269 2.201-2.825 0-5.648-.48-8.469-1.439-2.821-.959-5.389-2.37-7.702-4.232-2.313-1.862-4.176-4.148-5.589-6.857-1.412-2.709-2.119-5.757-2.119-9.144v-51.478l12.531-4.232v51.984z" fill="#fea85d"/>
        <path d="M49.015.011c-2.423 0-6.104.975-7.778 2.258 0 0 .369.834.965 1.489.298.327.484.765.707 1.261.224.496.149.728.149 1.396 0 .668.383 1.171.099 1.851-.284.68-.662 1.333-1.041 1.905-.354.535-.429.577-.706.917v.053l10.371-.37s3.14-7.585 3.14-9.295-3.486-1.464-5.909-1.464z" fill="#4b1910"/>
        <path d="M41.413 11.088c.277-.34.352-.382.706-.917.379-.572.757-1.225 1.041-1.905.284-.68.459-1.378.459-2.046 0-.668-.147-1.25-.37-1.746-.224-.496-.513-.907-.811-1.235-.597-.655-1.199-.97-1.199-.97l.176 8.819z" fill="#813525"/>
        <path d="M46.052 5.973c-10.049 0-12.611 9.965-12.611 15.31 0 5.345 1.34 9.348 1.34 9.348l1.552-.811c-.124-.427-.152-.369-.3-1.058-.186-.866-.372-1.924-.511-3.175s-.229-2.7-.229-4.304c0-.802.042-1.618.141-2.434.099-.817.254-1.618.459-2.416.205-.798.459-1.581.776-2.328.317-.747.692-1.471 1.129-2.134.437-.664.937-1.27 1.499-1.817.562-.547 1.192-1.031 1.887-1.429.695-.398 1.459-.72 2.293-.935.834-.215 1.736-.317 2.716-.317.98 0 2.075.116 3.228.317 1.153.202 2.357.483 3.598.829 2.482.692 5.06 1.617 7.39 2.54 2.33.922 4.424 1.848 5.926 2.54l.476.229.9-.476s-11.611-7.479-21.66-7.479z" fill="#bb5239"/>
        <path d="M66.812 13.928l-.476-.229c-1.503-.692-3.596-1.617-5.926-2.54-2.33-.922-4.908-1.848-7.39-2.54-1.241-.346-2.445-.627-3.598-.829-1.153-.202-2.248-.317-3.228-.317s-1.882.102-2.716.317c-.834.215-1.598.537-2.293.935-.695.398-1.325.882-1.887 1.429s-1.063 1.153-1.499 1.817c-.437.664-.811 1.387-1.129 2.134-.317.747-.571 1.53-.776 2.328-.205.798-.359 1.6-.459 2.416-.099.817-.141 1.632-.141 2.434 0 1.604.09 3.053.229 4.304.139 1.251.326 2.309.511 3.175.148.689.175.631.3 1.058l30.479-15.892z" fill="#4b1910"/>
        <path d="M82.943 23.407s3.931-.05 3.931-4.687c0-4.636-.907-10.583-9.877-10.583s-15.91 4.102-26.814 10.303c-10.904 6.2-15.394 12.187-15.394 12.187s.071.998 6.628 1.568c6.557.57 41.526-8.788 41.526-8.788z" fill="#bb5239"/>
        <path d="M60.18 121.432l.716-9.669c-1.083 1.008-4.334 3.026-6.181 4.226-1.847 1.2-4.624 2.657-6.545 3.753-1.261.719.093 1.121-.954 1.69z" fill="#4b1910"/>
        <path d="M.845 119.668c2.371.051 9.698.908 19.79 1.007 5.802.057 11.81.035 16.492-.027 2.341-.031 5.119.052 6.678-.026 1.558-.079 2.955-.532 3.396-.671.882-.277 2.238-.981 4.629-2.389 2.39-1.409 5.428-3.435 8.484-5.671 1.528-1.118 3.394-1.96 4.931-3.227s3.968-2.651 5.408-4.03c1.44-1.379 2.802-3.152 4.039-4.604 1.238-1.453 1.069-2.74 1.999-4.228.126-.202.111-1.124.172-1.554.061-.43.56-1.156.57-1.817.019-1.321-.102-3.052-.203-5.313-.101-2.261.103-4.929-.004-8.153s-.702-6.9-.702-11.108c0-2.104.336-4.165.49-6.504.154-2.338.238-4.919.502-7.369.529-4.899 1.168-9.584 1.874-14.189.706-4.605 2.184-9.009 2.714-12.334.529-3.324-.4-6.011-.4-7.069 0-1.058-.13-2.147-.401-2.818-.271-.671-.658-1.346-1.111-1.711-.454-.365-1.256-.533-1.804-.675-.548-.142-1.21-.327-1.764-.327s-2.461.393-4.829 1.186c-1.184.397-2.459.699-4.017 1.318-1.558.619-3.49 1.414-5.367 2.271-1.877.857-3.818 1.659-5.961 2.769-2.143 1.11-4.51 2.735-6.866 4.115-2.356 1.38-4.915 2.241-7.43 3.905-1.617 1.07-3.27 2.741-4.426 4.597 1.351 5.441 3.686 16.83 3.686 31.466 0 20.46-11.782 29.541-16.721 31.96-4.939 2.419-24.693 5.944-24.693 15.821 0 2.651.41 4.304.847 5.397z" fill="#813525"/>
        <path d="M77.024 11.123c-.297.008-.608.026-.917.053-2.965.257-6.448 1.363-10.001 2.61-9.474 3.326-29.332 17.638-29.332 17.638s.415 1.433.952 3.598c1.665-1.193 3.339-2.422 4.956-3.492 2.515-1.665 4.964-3.189 7.32-4.568 2.356-1.38 4.612-2.629 6.755-3.739 2.143-1.11 4.173-2.089 6.05-2.946 1.877-.857 3.61-1.586 5.168-2.205 1.558-.619 2.943-1.12 4.127-1.517 2.369-.794 3.943-1.164 4.498-1.164.554 0 1.128.052 1.676.194.548.142 1.063.375 1.517.741.454.365.84.864 1.111 1.535.271.671.423 1.517.423 2.575 0 1.058-.353 3.501-.882 6.826-.529 3.324-1.235 7.53-1.94 12.135-.706 4.605-1.411 9.599-1.94 14.498-.265 2.45-.481 4.876-.635 7.214-.154 2.338-.247 4.598-.247 6.702 0 4.208.087 7.906.194 11.13.107 3.224.234 5.958.335 8.219l.018.247c-.223.188-.457.375-.706.564-3.233 2.463-8.113 4.533-8.113 4.533s-7.035.053-9.454.053c-2.419 0-5.427-.655-8.854-2.469-3.427-1.814-2.575-1.923-7.161-1.923-5.35.807-10.805 4.461-11.218 6.067 1.685-.798 2.162-1.044 4.85-1.023 3.089.106 5.664 1.266 9.948 3.739 4.283 2.473 9.502 4.341 15.151 3.581 2.429-.327 4.01-1.855 5.027-3.492-.27 1.738.233 3.135 3.104 2.364 2.078-.558 4.009-1.269 5.715-2.134-.564.763-1.178 1.526-1.817 2.275-1.238 1.453-2.599 2.872-4.039 4.251-1.44 1.379-2.943 2.719-4.48 3.986-1.537 1.267-3.093 2.463-4.621 3.581-3.056 2.236-6.005 4.13-8.396 5.538-2.39 1.409-4.233 2.333-5.115 2.61-.441.139-1.528.239-3.087.317-1.558.079-3.585.128-5.926.159-4.682.061-10.602.039-16.403-.018-10.092-.099-17.419-.249-19.79-.3.51 1.276 1.058 1.764 1.058 1.764h45.312c1.047-.569 1.085-.551 2.346-1.27 1.921-1.096 3.991-2.31 5.838-3.51 1.847-1.2 3.485-2.379 4.568-3.387l.212 8.166h17.92s3.528-13.808 3.528-23.282c0-2.335-.141-4.663-.335-7.09l.229-.494c1.039-2.585.009-4.933-.847-6.279-.564-5.83-1.164-12.527-1.164-21.219 0-16.227 5.044-30.748 5.044-42.843 0-7.087-3.075-9.216-7.531-9.101z" fill="#662b1d"/>
        <path d="M68.752 14.845s1.527-.549 2.026-2.027c.249-.739.28-1.777.467-2.699.187-.922.406-1.692.406-2.672 0-.98.289-2.044.102-2.668-.187-.625-1.256-1.572-1.505-1.915-.499-.686-1.496-.595-1.496-.595z" fill="#bb5239"/>
        <path d="M75.913.523c-3.278 0-6.145.731-7.161 1.746 0 0 .489.196.988.882.249.343.501.804.688 1.429.187.625.317 1.401.317 2.381 0 .98-.13 1.971-.317 2.893-.187.922-.438 1.783-.688 2.522-.499 1.479-.988 2.469-.988 2.469l9.789-1.041s3.757-8.093 3.757-10.16-3.107-3.122-6.385-3.122z" fill="#813525"/>
        <path d="M80.481 82.134s-1.036 2.405-4.268 4.868c-3.233 2.463-8.113 4.533-8.113 4.533s-7.035.053-9.454.053c-2.419 0-5.427-.655-8.854-2.469-3.427-1.814-6.156-4.127-10.742-4.127-5.35.807-7.912 7.635-8.325 9.242.051-.049 2.364-2.008 5.163-1.812 4.76.223 7.286 1.857 10.324 3.558 4.283 2.473 9.502 4.341 15.151 3.581 2.429-.327 4.01-1.855 5.027-3.492-.27 1.738.233 3.135 3.104 2.364 6.236-1.675 11.113-4.846 12.717-8.837 1.604-3.991-1.729-7.461-1.729-7.461z" fill="#bb5239"/>
        <path d="M72.198 95.786" fill="#fea85d"/>
        <path d="M71.65 95.783" fill="#f69139"/>
        <path d="M72.185 95.301c0 3.729-3.023 6.751-6.751 6.751-3.729 0-6.751-3.023-6.751-6.751 0-3.729 3.023-6.751 6.751-6.751 3.729 0 6.751 3.023 6.751 6.751z" fill="#fea85d"/>
        <path d="M71.628 95.429c0 3.32-2.691 6.011-6.011 6.011-3.32 0-6.011-2.691-6.011-6.011 0-3.32 2.691-6.011 6.011-6.011 3.32 0 6.011 2.691 6.011 6.011z" fill="#f69139"/>
        <path d="M64.854 121.432l.093-23.886s-.458-.341-.703-.465c-.245-.124-.345-.378-.628-.672-.283-.295-.532-.408-.645-.918-.057-.255-.133-.498-.108-.816.021-.27-.153-.581-.056-.9-.298.505-.512 1.064-.512 1.693 0 1.222.644 2.291 1.605 2.893l.282 23.071h.67z" fill="#d86342"/>
        <path d="M65.7 92.064c-1.248 0-2.3.705-2.893 1.711-.097.319-.173.63-.194.9-.025.318-.003.592.053.847.113.51.37.905.653 1.199.283.295.602.493.847.617l.406.176.282 23.917h5.468l-1.817-24.058c.366-.544.582-1.199.582-1.905 0-1.883-1.512-3.404-3.386-3.404z" fill="#bb5239"/>
        <path d="M99.716 42.838c-3.273 0-6.457.478-9.563 1.438-3.106.959-5.886 2.388-8.313 4.25-2.427 1.862-4.376 4.171-5.844 6.938-1.468 2.766-2.188 5.906-2.188 9.406 0 3.5.676 6.332 2.031 8.531 1.356 2.2 3.061 4.032 5.094 5.5 1.919 1.581 4.03 2.847 6.344 3.75 2.313.903 4.584 1.782 6.844 2.688 1.24.338 2.434.736 3.563 1.188l3.375 1.375c1.354.565 2.782 1.13 4.25 1.75 1.468.62 2.784 1.371 3.969 2.219 1.185.847 2.178 1.883 2.969 3.125.791 1.242 1.187 2.757 1.188 4.563.114 2.37-.364 4.393-1.438 6.031-1.073 1.638-2.463 2.954-4.156 3.969-1.693 1.015-3.569 1.773-5.656 2.281-.752.183-1.505.352-2.25.469v8.875c2.239-.221 4.481-.605 6.719-1.219 3.498-.959 6.677-2.394 9.5-4.313 2.823-1.919 5.095-4.346 6.844-7.281 1.748-2.935 2.625-6.361 2.625-10.313 0-3.386-.677-6.249-2.031-8.563-1.354-2.313-3.061-4.263-5.094-5.844-1.919-1.581-4.031-2.853-6.344-3.813-2.313-.959-4.584-1.879-6.844-2.781-2.37-.903-4.755-1.853-7.125-2.813-2.37-.959-4.519-1.879-6.438-2.781-1.919-.903-3.471-1.977-4.656-3.219-1.185-1.242-1.75-2.947-1.75-5.094 0-2.032.441-3.782 1.344-5.25.903-1.467 2.095-2.666 3.563-3.625 1.468-.959 3.062-1.674 4.813-2.125 1.75-.451 3.539-.656 5.344-.656 5.419.227 10.831 1.861 16.25 4.906l4.563-7.281c-3.39-1.919-6.851-3.465-10.406-4.594-3.555-1.128-7.256-1.687-11.094-1.688z" fill="#f69139"/>
    </g>
</svg>
