<svg xmlns="http://www.w3.org/2000/svg" viewBox="0 0 920 283.52808">
	<path style="fill:#4b1910" d="M 87.869597,0.02022339 C 83.525865,0.02022339 76.926905,1.768114 73.925912,4.0681587 73.925912,4.0681587 74.587421,5.5632775 75.655875,6.7375014 76.190102,7.323717 76.523546,8.1089232 76.92332,8.9981066 77.324887,9.8872899 77.190434,10.303198 77.190434,11.500727 77.190434,12.698256 77.877041,13.599989 77.367912,14.81903 76.858783,16.038072 76.181139,17.208711 75.501702,18.23414 74.867084,19.193239 74.732631,19.268532 74.23605,19.878053 V 19.973067 L 92.828228,19.309765 C 92.828228,19.309765 98.457332,5.7120722 98.457332,2.646541 98.457332,-0.41899015 92.207951,0.0220161 87.864219,0.0220161 z"/>
	<path style="fill:#813525" d="M 74.241428,19.878053 C 74.738009,19.268532 74.872462,19.193239 75.507081,18.23414 76.186517,17.208711 76.864161,16.038072 77.37329,14.81903 77.882419,13.599989 78.196143,12.348678 78.196143,11.151149 78.196143,9.9536201 77.932615,8.9102638 77.532841,8.0210805 77.131274,7.1318972 76.613182,6.3950941 76.078954,5.8070858 75.008708,4.6328618 73.929497,4.0681587 73.929497,4.0681587 L 74.245014,19.878053 z"/>
	<path style="fill:#bb5239" d="M 82.557802,10.70835 C 64.542877,10.70835 59.949958,28.572688 59.949958,38.154714 59.949958,47.73674 62.352187,54.912952 62.352187,54.912952 L 65.13447,53.459065 C 64.912174,52.693579 64.861979,52.797556 64.596658,51.56238 64.263214,50.009894 63.92977,48.113209 63.680584,45.870531 63.431397,43.627853 63.270054,41.030218 63.270054,38.154714 63.270054,36.716962 63.345347,35.254112 63.522826,33.791262 63.700304,32.32662 63.978173,30.89066 64.345679,29.460079 64.713184,28.029498 65.168532,26.625807 65.73682,25.286654 66.305109,23.947501 66.977374,22.64958 67.760788,21.461015 68.544201,20.270656 69.440556,19.184275 70.448058,18.203664 71.45556,17.223052 72.584966,16.355381 73.830898,15.641884 75.076831,14.928386 76.44646,14.351134 77.941578,13.965701 79.436697,13.580269 81.05372,13.397413 82.810574,13.397413 84.567428,13.397413 86.530444,13.605367 88.597437,13.965701 90.664429,14.327828 92.82285,14.831579 95.047601,15.451856 99.497103,16.692411 104.1187,18.350666 108.29572,20.005336 112.47273,21.658213 116.22666,23.31826 118.9193,24.558815 L 119.77263,24.969345 121.38607,24.116016 C 121.38607,24.116016 100.57094,10.70835 82.55601,10.70835 z"/>
	<path style="fill:#4b1910" d="M 119.77443,24.969345 118.9211,24.558815 C 116.22666,23.31826 112.47452,21.660005 108.29751,20.005336 104.1205,18.352458 99.498896,16.692411 95.049394,15.451856 92.824643,14.831579 90.666222,14.327828 88.599229,13.965701 86.532237,13.603574 84.569221,13.397413 82.812367,13.397413 81.055513,13.397413 79.43849,13.580269 77.943371,13.965701 76.448252,14.351134 75.078623,14.928386 73.832691,15.641884 72.586759,16.355381 71.457352,17.223052 70.44985,18.203664 69.442348,19.184275 68.544201,20.270656 67.762581,21.461015 66.979167,22.651373 66.308694,23.947501 65.738613,25.286654 65.170324,26.625807 64.714977,28.029498 64.347471,29.460079 63.979966,30.89066 63.703889,32.328412 63.524618,33.791262 63.34714,35.255905 63.271846,36.716962 63.271846,38.154714 63.271846,41.030218 63.43319,43.627853 63.682377,45.870531 63.931563,48.113209 64.266799,50.009894 64.598451,51.56238 64.863771,52.797556 64.912174,52.693579 65.136263,53.459065 L 119.77622,24.969345 z"/>
	<path style="fill:#bb5239" d="M 148.6926,41.962427 C 148.6926,41.962427 155.73974,41.872791 155.73974,33.560003 155.73974,25.249007 154.11375,14.587771 138.03316,14.587771 121.95257,14.587771 109.51117,21.94146 89.96348,33.058045 70.415789,44.172836 62.366529,54.905781 62.366529,54.905781 62.366529,54.905781 62.493811,56.694904 74.248599,57.716747 86.003388,58.738591 148.6926,41.962427 148.6926,41.962427 z"/>
	<path style="fill:#4b1910" d="M 107.88519,217.69266 109.16876,200.35896 C 107.22726,202.16601 101.39917,205.7837 98.088034,207.93495 94.776902,210.0862 89.798551,212.69817 86.354758,214.66298 84.094153,215.95194 86.52148,216.67261 84.644515,217.69266 z"/>
	<path style="fill:#813525" d="M 1.5148381,214.53032 C 5.7653495,214.62175 18.900523,216.1581 36.992535,216.33558 47.393829,216.43776 58.16442,216.39832 66.557881,216.28717 70.754611,216.2316 75.734754,216.3804 78.529587,216.24056 81.322626,216.09894 83.82704,215.28684 84.617624,215.03766 86.198793,214.54108 88.629705,213.27901 92.916071,210.75488 97.200644,208.22895 102.64689,204.59692 108.12541,200.58843 110.86467,198.58418 114.20986,197.07472 116.96525,194.80336 119.72065,192.532 124.07872,190.05089 126.66022,187.57874 129.24172,185.1066 131.68339,181.92813 133.90097,179.32511 136.12034,176.72031 135.81737,174.41309 137.48459,171.74554 137.71047,171.38342 137.68358,169.73054 137.79294,168.95968 137.90229,168.18881 138.79685,166.8873 138.81478,165.70232 138.84884,163.33416 138.63193,160.23098 138.45086,156.17767 138.2698,152.12435 138.63551,147.34141 138.44369,141.56171 138.25187,135.78202 137.18521,129.19203 137.18521,121.64831 137.18521,117.87645 137.78756,114.18168 138.06364,109.98854 138.33971,105.79718 138.4903,101.1702 138.96358,96.778068 139.91192,87.995591 141.05746,79.596752 142.32311,71.34133 143.58876,63.085909 146.23839,55.190821 147.18852,49.230066 148.13686,43.271104 146.47144,38.454097 146.47144,36.557411 146.47144,34.660726 146.23839,32.708467 145.75256,31.505559 145.26674,30.302652 144.57296,29.092574 143.76086,28.438235 142.94697,27.783897 141.50922,27.482722 140.52682,27.228157 139.54441,26.973593 138.35764,26.641942 137.36448,26.641942 136.37132,26.641942 132.95263,27.346476 128.70749,28.768094 126.58493,29.479799 124.29922,30.021197 121.50618,31.130883 118.71314,32.24057 115.24963,33.665773 111.88472,35.202124 108.5198,36.738475 105.04016,38.176227 101.19838,40.166133 97.356609,42.156039 93.113269,45.06919 88.889648,47.543128 84.666027,50.017065 80.078487,51.560587 75.569825,54.543654 72.671016,56.461852 69.707669,59.457467 67.635298,62.784734 70.057247,72.53886 74.243221,92.956014 74.243221,119.19409 74.243221,155.8729 53.121532,172.15249 44.267346,176.48905 35.413159,180.82561 -3.8097698e-7,187.14491 -3.8097698e-7,204.85149 -3.8097698e-7,209.60396 0.73501002,212.5673 1.5184235,214.52674 z"/>
	<path style="fill:#662b1d" d="M 138.08156,19.940798 C 137.54913,19.95514 136.9916,19.987408 136.43765,20.035812 131.12227,20.496538 124.87827,22.479273 118.50877,24.71478 101.52466,30.677328 65.925055,56.334569 65.925055,56.334569 65.925055,56.334569 66.669029,58.90352 67.631713,62.784734 70.616572,60.646033 73.617566,58.442794 76.516375,56.524596 81.025037,53.539737 85.415379,50.80765 89.639,48.335505 93.862621,45.861567 97.906971,43.622475 101.74874,41.632568 105.59052,39.642662 109.22972,37.887601 112.59463,36.35125 115.95954,34.814899 119.06631,33.508014 121.85935,32.398328 124.65239,31.288642 127.13529,30.390495 129.25785,29.67879 133.50478,28.255379 136.3265,27.592077 137.32146,27.592077 138.31462,27.592077 139.34363,27.685298 140.32603,27.939862 141.30844,28.194427 142.23168,28.612128 143.04557,29.268259 143.85946,29.922598 144.55145,30.817159 145.03727,32.020067 145.5231,33.222974 145.79559,34.739605 145.79559,36.63629 145.79559,38.532976 145.16276,42.912562 144.21442,48.873317 143.26608,54.83228 142.00042,62.372411 140.73656,70.627832 139.47091,78.883254 138.20705,87.836039 137.25871,96.618517 136.78364,101.01065 136.39642,105.35976 136.12034,109.55112 135.84426,113.74247 135.67754,117.79399 135.67754,121.56585 135.67754,129.10956 135.83351,135.739 136.02533,141.51869 136.21715,147.29838 136.44482,152.19965 136.62588,156.25296 L 136.65815,156.69576 C 136.25838,157.03279 135.83889,157.36802 135.3925,157.70685 129.59668,162.12229 120.84826,165.83319 120.84826,165.83319 120.84826,165.83319 108.23656,165.92821 103.89999,165.92821 99.563433,165.92821 94.170967,164.75398 88.027355,161.50201 81.883744,158.25004 83.411131,158.05463 75.189771,158.05463 65.598782,159.50135 55.819558,166.0519 55.079169,168.93099 58.099883,167.50041 58.955005,167.0594 63.773805,167.09705 69.311481,167.28708 73.927704,169.36662 81.607667,173.79999 89.285837,178.23336 98.641981,181.58213 108.76899,180.21968 113.12348,179.63346 115.95775,176.8942 117.78093,173.95954 117.2969,177.07527 118.19864,179.57968 123.3455,178.1975 127.07075,177.19717 130.53247,175.92255 133.59083,174.37186 132.57974,175.7397 131.47902,177.10753 130.33348,178.45027 128.11411,181.05508 125.67423,183.59893 123.09273,186.07108 120.51123,188.54322 117.81679,190.94545 115.0614,193.21681 112.306,195.48817 109.51655,197.63225 106.77729,199.6365 101.29877,203.645 96.012078,207.04039 91.725712,209.56452 87.44114,212.09044 84.137178,213.74691 82.55601,214.24349 81.765425,214.49267 79.816751,214.67194 77.021919,214.81178 74.228879,214.9534 70.59506,215.04124 66.39833,215.09682 58.004869,215.20617 47.392036,215.16673 36.992535,215.06455 18.900523,214.88707 5.7653495,214.61816 1.5148381,214.52674 2.4291194,216.81423 3.4115235,217.68907 3.4115235,217.68907 H 84.642722 C 86.519688,216.66902 86.587811,216.70129 88.848416,215.41233 92.292208,213.44752 96.003115,211.27118 99.314247,209.11993 102.62538,206.96868 105.56184,204.85507 107.50334,203.04802 L 107.88339,217.68728 H 140.00873 C 140.00873,217.68728 146.3334,192.93356 146.3334,175.94945 146.3334,171.76347 146.08063,167.59005 145.73284,163.23914 L 146.14337,162.35355 C 148.006,157.71939 146.15951,153.51012 144.62495,151.09713 143.61386,140.64564 142.53824,128.63987 142.53824,113.05765 142.53824,83.967375 151.58066,57.935458 151.58066,36.252651 151.58066,23.547727 146.06808,19.731051 138.07977,19.937213 z"/>
	<path style="fill:#bb5239" d="M 123.25228,26.613258 C 123.25228,26.613258 125.98975,25.629061 126.88431,22.979439 127.33069,21.654627 127.38627,19.793796 127.7215,18.140919 128.05674,16.488042 128.44934,15.107656 128.44934,13.350802 128.44934,11.593948 128.96743,9.6865065 128.6322,8.5678566 128.29696,7.4474139 126.38056,5.7497191 125.93417,5.1348202 125.03961,3.9050223 123.25228,4.0681587 123.25228,4.0681587 z"/>
	<path style="fill:#813525" d="M 136.08986,0.93809004 C 130.21337,0.93809004 125.07367,2.2485598 123.25228,4.0681587 123.25228,4.0681587 124.12892,4.4195296 125.02348,5.6493274 125.46986,6.2642264 125.92162,7.0906649 126.25686,8.2111076 126.5921,9.3315503 126.82515,10.722692 126.82515,12.479546 126.82515,14.2364 126.5921,16.012974 126.25686,17.665851 125.92162,19.318728 125.47165,20.86225 125.02348,22.187062 124.12892,24.838477 123.25228,26.613258 123.25228,26.613258 L 140.8011,24.747049 C 140.8011,24.747049 147.53631,10.238661 147.53631,6.5331326 147.53631,2.8276046 141.96636,0.93629733 136.08986,0.93629733 z"/>
	<path style="fill:#bb5239" d="M 144.27896,147.24281 C 144.27896,147.24281 142.42171,151.55427 136.62768,155.96971 130.83185,160.38515 122.08343,164.09606 122.08343,164.09606 122.08343,164.09606 109.47173,164.19107 105.13517,164.19107 100.79861,164.19107 95.406143,163.01685 89.262531,159.76487 83.11892,156.5129 78.226619,152.36637 70.005259,152.36637 60.414269,153.81308 55.821351,166.0537 55.080962,168.93458 55.17239,168.84673 59.318925,165.33482 64.336715,165.68619 72.870007,166.08596 77.398388,169.01525 82.844636,172.06465 90.522805,176.49801 99.87895,179.84679 110.00596,178.48433 114.36045,177.89812 117.19472,175.15886 119.0179,172.2242 118.53387,175.33992 119.4356,177.84434 124.58247,176.46216 135.7618,173.45937 144.50484,167.7747 147.38034,160.62 150.25585,153.4653 144.28075,147.2446 144.28075,147.2446 z"/>
	<path fill="#fea85d" d="M 129.40665,170.8474 C 129.40665,177.53241 123.98729,182.94997 117.30407,182.94997 110.61907,182.94997 105.2015,177.53061 105.2015,170.8474 105.2015,164.16239 110.62086,158.74482 117.30407,158.74482 123.98908,158.74482 129.40665,164.16418 129.40665,170.8474 z"/>
	<path fill="#f69139" d="M 128.40811,171.07686 C 128.40811,177.02866 123.58393,181.85283 117.63214,181.85283 111.68035,181.85283 106.85617,177.02866 106.85617,171.07686 106.85617,165.12507 111.68035,160.30089 117.63214,160.30089 123.58393,160.30089 128.40811,165.12507 128.40811,171.07686 z"/>
	<path style="fill:#d86342" d="M 116.2643,217.69266 116.43103,174.87203 C 116.43103,174.87203 115.60997,174.26071 115.17075,174.03842 114.73154,173.81612 114.55227,173.36077 114.04493,172.83372 113.53759,172.30487 113.09121,172.10229 112.88863,171.18801 112.78645,170.73087 112.6502,170.29524 112.69502,169.72516 112.73267,169.24113 112.42074,168.6836 112.59463,168.11172 112.0604,169.01704 111.67676,170.01917 111.67676,171.14678 111.67676,173.33747 112.83127,175.25387 114.55406,176.33308 L 115.0596,217.69266 H 116.26072 z"/>
	<path style="fill:#bb5239" d="M 117.78093,165.0444 C 115.54363,165.0444 113.65771,166.30826 112.59463,168.11172 112.42074,168.6836 112.28449,169.24113 112.24684,169.72516 112.20203,170.29524 112.24147,170.78645 112.34186,171.24359 112.54443,172.15787 113.00516,172.86599 113.5125,173.39304 114.01983,173.92189 114.59171,174.27685 115.03092,174.49914 L 115.75876,174.81466 116.2643,217.69087 H 126.06683 L 122.80948,174.56189 C 123.46561,173.58666 123.85284,172.41243 123.85284,171.14678 123.85284,167.77111 121.14226,165.0444 117.78273,165.0444 z"/>
	<g fill="#f69139">
		<path d="M 178.75 76.8125 C 172.88426 76.8125 167.19315 77.687043 161.625 79.40625 C 156.05685 81.125457 151.1009 83.630727 146.75 86.96875 C 142.39909 90.306772 138.8817 94.478868 136.25 99.4375 C 133.6201 104.39613 132.3125 110.00677 132.3125 116.28125 C 132.3125 122.55573 133.53784 127.64979 135.96875 131.59375 C 138.39787 135.53771 141.41793 138.83705 145.0625 141.46875 C 148.50271 144.30481 152.29096 146.53743 156.4375 148.15625 C 160.58582 149.77506 164.69848 151.37581 168.75 153 C 170.97476 153.60415 173.10282 154.31649 175.125 155.125 L 181.1875 157.5625 C 183.61483 158.57538 186.14956 159.63852 188.78125 160.75 C 191.41295 161.86148 193.78189 163.16908 195.90625 164.6875 C 198.03061 166.20593 199.80072 168.08596 201.21875 170.3125 C 202.63679 172.53904 203.34375 175.26416 203.34375 178.5 C 203.54812 182.74872 202.70482 186.3448 200.78125 189.28125 C 198.85767 192.21771 196.37881 194.58665 193.34375 196.40625 C 190.3087 198.22585 186.89943 199.58931 183.15625 200.5 C 179.41487 201.4107 175.73654 201.875 172.09375 201.875 C 166.22622 201.67601 160.20355 200.50294 154.03125 198.375 C 150.69273 197.22498 147.5828 195.87844 144.6875 194.34375 C 143.78126 200.30206 142.67167 205.8827 141.75 210.125 C 144.31462 211.39578 147.00247 212.53462 149.78125 213.5625 C 157.169 216.29638 164.68607 217.65625 172.375 217.65625 C 178.64947 217.65625 184.94785 216.81296 191.21875 215.09375 C 197.48964 213.37454 203.15793 210.78395 208.21875 207.34375 C 213.27956 203.90354 217.36634 199.54285 220.5 194.28125 C 223.63365 189.01965 225.1875 182.86424 225.1875 175.78125 C 225.1875 169.71114 223.98983 164.58403 221.5625 160.4375 C 219.13517 156.29096 216.11153 152.80302 212.46875 149.96875 C 209.02854 147.13447 205.20903 144.8442 201.0625 143.125 C 196.91417 141.40579 192.83277 139.74382 188.78125 138.125 C 184.53253 136.50619 180.27997 134.8442 176.03125 133.125 C 171.78253 131.40579 167.94021 129.74382 164.5 128.125 C 161.05979 126.50619 158.28061 124.57029 156.15625 122.34375 C 154.03189 120.11721 152.96875 117.09715 152.96875 113.25 C 152.96875 109.60721 153.75619 106.44419 155.375 103.8125 C 156.99203 101.18259 159.1183 99.031708 161.75 97.3125 C 164.3799 95.593293 167.26901 94.308511 170.40625 93.5 C 173.54349 92.691488 176.73292 92.28125 179.96875 92.28125 C 189.68344 92.688195 199.41032 95.634953 209.125 101.09375 L 217.3125 88.03125 C 211.23701 84.591043 205.02932 81.865925 198.65625 79.84375 C 192.28317 77.821575 185.63042 76.8125 178.75 76.8125 z"/>
		<path d="M 249.31911,95.331353 H 234.13667 V 81.06498 H 249.31911 V 44.029419 L 271.47699,36.136125 V 81.06498 H 296.36874 V 95.331353 H 271.47699 V 181.84387 C 271.47699,190.74287 273.70353,196.61041 278.15662,199.44468 282.60971,202.27895 288.67982,203.89777 296.36874,204.29933 V 215.84258 C 281.59683,217.25703 270.06075,214.9283 261.76409,208.85819 253.46744,202.78808 249.31911,193.98409 249.31911,182.44801 z"/>
		<path d="M 369.27819,94.413486 C 361.99083,94.413486 355.76655,95.576954 350.60713,97.905682 345.44772,100.23441 340.84404,103.11888 336.79969,106.55729 V 214.01581 H 314.64182 V 103.51865 C 323.13926,94.008334 333.66245,87.12792 346.21141,82.879201 352.88746,80.451874 359.66569,78.682471 366.54431,77.570992 373.42472,76.459513 381.52059,76.712284 390.83371,78.3311 389.41389,81.159994 387.89367,84.14306 386.27665,87.2803 384.65783,90.417539 383.24159,93.404191 382.02435,96.238463 L 375.35009,95.019422 C 373.12355,94.61427 371.20177,94.413486 369.58295,94.413486 z"/>
		<path d="M 473.9616,190.64428 V 145.11307 H 460.9053 C 455.64729,145.11307 450.2853,145.21167 444.81933,145.40887 436.32189,145.40887 429.2389,147.68561 423.57395,152.24088 417.90719,156.79615 415.07472,163.32161 415.07472,171.81905 415.07472,175.6662 415.83303,179.36097 417.34966,182.90336 418.86629,186.44575 420.99065,189.5812 423.72274,192.3097 426.45483,195.04 429.64226,197.26654 433.28325,198.98933 436.92424,200.71212 440.97039,201.57442 445.42347,201.57442 451.90232,201.77162 457.77165,200.55616 463.03325,197.92446 468.29485,195.29277 471.93942,192.86723 473.96518,190.64248 z M 495.50816,193.68292 C 489.02931,200.15459 480.78285,205.61697 470.7652,210.07006 460.74755,214.52315 449.06267,216.64751 435.71237,216.44314 429.64226,216.23877 423.97551,214.97491 418.71391,212.64977 413.45231,210.32463 408.84864,207.18918 404.9011,203.24343 400.95535,199.29768 397.8683,194.694 395.64176,189.43061 393.41521,184.16901 392.40413,178.50226 392.6085,172.43215 392.6085,165.9533 393.82216,160.13417 396.24949,154.97476 398.67681,149.81534 401.96464,145.46444 406.11476,141.92205 410.26488,138.37966 415.07113,135.69777 420.53351,133.87637 425.99589,132.05498 431.96561,131.14429 438.44446,131.14429 H 474.56395 V 118.09158 C 474.56395,114.2498 473.75544,110.76119 472.13662,107.62395 470.51781,104.48671 468.39345,101.80482 465.76354,99.578279 463.13185,97.351735 460.0466,95.632528 456.5042,94.418864 452.96181,93.205201 449.36923,92.599265 445.72644,92.599265 439.0504,92.599265 433.03048,93.407777 427.6667,95.026592 422.30292,96.645408 416.68815,98.972343 410.82062,102.01098 L 405.35465,89.255864 C 413.24795,85.007146 420.6339,82.022286 427.51253,80.303079 434.39294,78.583872 442.38663,77.723372 451.49538,77.723372 456.95417,77.723372 462.36636,78.634068 467.73014,80.455459 473.09393,82.276851 477.79979,84.856558 481.84772,88.194581 485.89566,91.532604 489.18528,95.630735 491.713,100.48718 494.24251,105.34363 495.50637,110.8078 495.50637,116.87971 z"/>
		<path d="M 571.07261,201.26966 C 578.35459,200.86271 584.17013,198.93914 588.52104,195.49893 592.87194,192.05872 596.15977,187.75981 598.38631,182.5986 600.61285,177.43919 602.08108,171.87462 602.79099,165.9049 603.50091,159.93697 603.85586,154.11784 603.85586,148.44751 603.85586,142.98154 603.50091,137.06202 602.79099,130.68894 602.08108,124.31586 600.66305,118.34614 598.53869,112.78158 596.41433,107.21701 593.27888,102.56314 589.13235,98.816378 584.98582,95.07141 579.47145,92.997247 572.59282,92.59568 567.93537,92.391311 563.53248,92.644083 559.38236,93.35041 555.23224,94.05853 551.48727,95.019422 548.15104,96.236671 544.81302,97.453919 542.08093,98.719572 539.95657,100.03542 537.83221,101.35127 536.36577,102.41255 535.55547,103.22285 V 189.73537 C 537.37686,190.94545 539.60341,192.25951 542.2351,193.67754 544.8668,195.09557 547.74947,196.40962 550.88671,197.62329 554.02395,198.83695 557.31178,199.79784 560.75199,200.50955 564.19219,201.21946 567.6324,201.47223 571.07081,201.26966 z M 576.53857,78.02634 C 585.64195,77.821971 593.48146,79.643363 600.05891,83.486929 606.63635,87.332288 612.10053,92.593887 616.45143,99.271726 620.80233,105.95136 624.03997,113.64208 626.16433,122.34209 628.28868,131.04389 629.35176,140.25124 629.35176,149.96593 629.35176,158.46337 628.28868,166.65963 626.16433,174.55113 624.03997,182.44443 620.75035,189.52742 616.29905,195.8019 611.84596,202.07638 606.2814,207.1354 599.60535,210.98076 592.92931,214.82432 585.03601,216.85008 575.92726,217.05266 568.4427,217.05266 561.4601,215.98958 554.98305,213.86523 548.5042,211.74087 542.13112,208.75421 535.86382,204.90706 V 283.52808 L 514.00174,275.63478 514.30829,101.08953 517.64811,97.600922 C 519.87465,95.275779 523.46724,92.645876 528.42587,89.707627 533.3845,86.771171 539.75937,84.089279 547.55048,81.661952 555.34159,79.234625 564.9021,77.918777 576.23561,77.716201 z"/>
	</g>
	<g fill="#fea85d">
		<path d="M 648.09273,216.74969 C 643.63965,216.74969 639.89647,215.23127 636.86142,212.19621 633.82636,209.16116 632.20575,205.51838 632.00318,201.26966 632.00318,196.81657 633.4714,193.02141 636.40786,189.88417 639.34432,186.74693 642.9369,185.17831 647.18562,185.17831 651.63871,185.17831 655.38189,186.74693 658.41694,189.88417 661.452,193.02141 662.97042,196.81657 662.97042,201.26966 662.97042,205.51838 661.452,209.16116 658.41694,212.19621 655.38189,215.23127 651.8377,216.74969 647.78618,216.74969 z"/>
		<path d="M 732.99898,201.26966 C 740.28097,200.86271 746.09651,198.93914 750.44741,195.49893 754.79832,192.05872 758.08614,187.75981 760.31269,182.5986 762.53923,177.43919 764.00746,171.87462 764.71737,165.9049 765.42728,159.93697 765.78224,154.11784 765.78224,148.44751 765.78224,142.98154 765.42728,137.06202 764.71737,130.68894 764.00746,124.31586 762.58943,118.34614 760.46507,112.78158 758.34071,107.21701 755.20526,102.56314 751.05873,98.816378 746.91219,95.07141 741.39782,92.997247 734.5192,92.59568 729.86174,92.391311 725.45885,92.644083 721.30873,93.35041 717.15861,94.05853 713.41365,95.019422 710.07742,96.236671 706.73939,97.453919 704.00731,98.719572 701.88295,100.03542 699.75859,101.35127 698.29215,102.41255 697.48185,103.22285 V 189.73537 C 699.30324,190.94545 701.52978,192.25951 704.16148,193.67754 706.79317,195.09557 709.67585,196.40962 712.81309,197.62329 715.95033,198.83695 719.23815,199.79784 722.67836,200.50955 726.11857,201.21946 729.55878,201.47223 732.99719,201.26966 z M 738.46495,78.02634 C 747.56832,77.821971 755.40784,79.643363 761.98528,83.486929 768.56273,87.332288 774.02691,92.593887 778.37781,99.271726 782.72871,105.95136 785.96634,113.64208 788.0907,122.34209 790.21506,131.04389 791.27814,140.25124 791.27814,149.96593 791.27814,158.46337 790.21506,166.65963 788.0907,174.55113 785.96634,182.44443 782.67672,189.52742 778.22543,195.8019 773.77234,202.07638 768.20777,207.1354 761.53173,210.98076 754.85568,214.82432 746.96239,216.85008 737.85364,217.05266 730.36908,217.05266 723.38648,215.98958 716.90943,213.86523 710.43058,211.74087 704.0575,208.75421 697.79019,204.90706 V 283.52808 L 675.92812,275.63478 676.23467,101.08953 679.57448,97.600922 C 681.80103,95.275779 685.39361,92.645876 690.35225,89.707627 695.31088,86.771171 701.68575,84.089279 709.47686,81.661952 717.26797,79.234625 726.82848,77.918777 738.16198,77.716201 z"/>
		<path d="M 831.06013,170.60717 C 831.06013,180.926 834.29776,188.66871 840.77302,193.83171 847.24828,198.99471 855.44455,201.47403 865.3636,201.26966 871.23114,201.06529 877.19906,199.64905 883.27096,197.01735 889.34107,194.38566 894.19931,191.85794 897.8421,189.43061 V 81.06498 H 919.99997 V 201.57621 C 919.99997,205.41798 919.89958,209.66491 919.6988,214.31878 919.49801,218.97265 919.14485,223.62652 918.63751,228.28398 918.13018,232.93964 917.42206,237.39273 916.51136,241.64145 915.60067,245.89017 914.33501,249.53474 912.71799,252.57338 909.88372,257.83498 905.93618,262.38846 900.87895,266.23203 895.82172,270.07559 890.25715,273.21283 884.18525,275.63837 878.11514,278.0657 871.89085,279.83689 865.51419,280.95016 859.13753,282.06523 853.11761,282.72136 847.45445,282.91856 L 843.80449,268.95874 C 848.06038,268.3528 852.66585,267.64647 857.62089,266.83796 862.57773,266.02945 867.38398,264.86419 872.03965,263.34577 876.69531,261.82734 880.99781,259.75139 884.94356,257.12148 888.88931,254.48979 891.97456,251.05137 894.19752,246.80266 895.41477,244.77689 896.32547,242.24559 896.92961,239.21054 897.53554,236.17548 897.9891,233.04003 898.29207,229.8042 898.59503,226.56836 898.79761,223.38092 898.898,220.24368 899.00019,217.10644 899.05038,214.32416 899.05038,211.89683 899.05038,210.27264 899.10058,209.30995 899.20276,209.00699 899.30495,208.70402 899.25296,207.74492 899.05038,206.1261 895.61018,207.74492 890.04561,209.86928 882.35668,212.49918 874.66776,215.13088 864.34893,216.44493 851.3984,216.44493 846.334,216.44493 841.27319,215.58443 836.21596,213.86523 831.15873,212.14602 826.55505,209.61651 822.40852,206.27848 818.26198,202.94046 814.92217,198.84233 812.38907,193.98588 809.85777,189.12944 808.59032,183.66526 808.59032,177.59336 V 85.308321 L 831.05475,77.721579 V 170.91373 z"/>
	</g>
</svg>
